<svg width="123" height="123" viewBox="0 0 123 123" fill="none" xmlns="http://www.w3.org/2000/svg">
<path d="M99.9375 92.25H84.5625C76.875 92.25 71.4938 83.025 66.1125 71.4938C63.8063 76.875 61.5 83.025 58.425 89.175C64.575 99.9375 72.2625 107.625 84.5625 107.625H99.9375V123L123 99.9375L99.9375 76.875V92.25Z" fill="#444444"/>
<path d="M41.5125 50.7375C43.8188 45.3562 46.125 39.2062 49.2 33.825C43.05 23.0625 34.5938 15.375 23.0625 15.375H0V30.75H23.0625C30.75 30.75 36.1313 39.975 41.5125 50.7375Z" fill="#444444"/>
<path d="M123 23.0625L99.9375 0V15.375H84.5625C63.8063 15.375 54.5812 38.4375 46.125 59.1937C39.975 75.3375 33.0563 92.25 23.0625 92.25H0V107.625H23.0625C43.05 107.625 52.275 86.1 60.7313 64.575C67.65 47.6625 74.5687 30.75 84.5625 30.75H99.9375V46.125L123 23.0625Z" fill="#444444"/>
</svg>
